# xmcd
#
# Track frame offsets: 
#        150
#        12872
#        25025
#        36132
#        52497
#        66830
#        82674
#        95800
#        108602
#        120972
#        132859
#        152741
#
# Disc length: 2198 seconds
#
# Revision: 0
# Processed by: cddbd v1.5.2PL0 Copyright (c) Steve Scherf et al.
# Submitted via: ExactAudioCopy v0.99pb4
#
DISCID=9608940c
DTITLE=Hillbilly Idol - Lights of Town
DYEAR=2008
DGENRE=Country
TTITLE0=Lights Of Town
TTITLE1=Another Chance At Paradise
TTITLE2=Quadruplet Polka
TTITLE3=I Still Care
TTITLE4=Tale Of The Mouse Suit
TTITLE5=Blue Showin' Through
TTITLE6=Just Another You
TTITLE7=Comin' Home By Goin' Away
TTITLE8=Thinkin' About Charlie
TTITLE9=Anywhere But Here
TTITLE10=Lavada
TTITLE11=Morning Star
EXTD=
EXTT0=
EXTT1=
EXTT2=
EXTT3=
EXTT4=
EXTT5=
EXTT6=
EXTT7=
EXTT8=
EXTT9=
EXTT10=
EXTT11=
PLAYORDER=
